<?xml version="1.0" encoding="utf-8"?><!-- Uploaded to: SVG Repo, www.svgrepo.com, Generator: SVG Repo Mixer Tools -->
<svg width="800px" height="800px" viewBox="0 0 24 24" fill="none" xmlns="http://www.w3.org/2000/svg">
<path d="M12 5H9C7.11438 5 6.17157 5 5.58579 5.58579C5 6.17157 5 7.11438 5 9V15C5 16.8856 5 17.8284 5.58579 18.4142C6.17157 19 7.11438 19 9 19H15C16.8856 19 17.8284 19 18.4142 18.4142C19 17.8284 19 16.8856 19 15V12M9.31899 12.6911L15.2486 6.82803C15.7216 6.36041 16.4744 6.33462 16.9782 6.76876C17.5331 7.24688 17.5723 8.09299 17.064 8.62034L11.2329 14.6702L9 15L9.31899 12.6911Z" stroke="#000000" stroke-linecap="round" stroke-linejoin="round"/>
</svg>

